<svg width="18" height="19" viewBox="0 0 18 19" fill="none" xmlns="http://www.w3.org/2000/svg">
<path fill-rule="evenodd" clip-rule="evenodd" d="M8.65654 18.1568C13.4374 18.1568 17.3131 14.2812 17.3131 9.50029C17.3131 4.71941 13.4374 0.84375 8.65654 0.84375C3.87566 0.84375 0 4.71941 0 9.50029C0 14.2812 3.87566 18.1568 8.65654 18.1568ZM9.25649 4.69824C9.25649 4.36687 8.98787 4.09824 8.65649 4.09824C8.32512 4.09824 8.05649 4.36687 8.05649 4.69824V10.4493V10.6727L8.20268 10.8418L10.9495 14.0177C11.1662 14.2684 11.5452 14.2958 11.7958 14.079C12.0464 13.8623 12.0739 13.4834 11.8571 13.2327L9.25649 10.2258V4.69824Z" fill="#00ADA6"/>
</svg>
